<svg width="45" height="25" viewBox="0 0 45 25" fill="none" xmlns="http://www.w3.org/2000/svg">
<circle cx="42.5" cy="22.5" r="2.5" fill="#D88631"/>
<path d="M0 2C0 0.89543 0.895431 0 2 0H3C4.10457 0 5 0.89543 5 2V23C5 24.1046 4.10457 25 3 25H2C0.89543 25 0 24.1046 0 23V2Z" fill="black"/>
<path d="M2 25C0.89543 25 0 24.1046 0 23L0 22C0 20.8954 0.895431 20 2 20H15C16.1046 20 17 20.8954 17 22V23C17 24.1046 16.1046 25 15 25H2Z" fill="black"/>
<path d="M20 2C20 0.89543 20.8954 0 22 0H23C24.1046 0 25 0.89543 25 2V23C25 24.1046 24.1046 25 23 25H22C20.8954 25 20 24.1046 20 23V2Z" fill="black"/>
<path d="M22 25C20.8954 25 20 24.1046 20 23V22C20 20.8954 20.8954 20 22 20H35C36.1046 20 37 20.8954 37 22V23C37 24.1046 36.1046 25 35 25H22Z" fill="black"/>
</svg>
